<?xml version="1.0" encoding="utf-8"?><svg version="1.1" id="Layer_1" xmlns="http://www.w3.org/2000/svg" xmlns:xlink="http://www.w3.org/1999/xlink" height="30px" width="30px" x="0px" y="0px" viewBox="0 0 122.88 92.76" style="enable-background:new 0 0 122.88 92.76" xml:space="preserve"><g><path d="M104.52,0.01h11.14c0.98,0,1.9,0.18,2.77,0.53c0.85,0.35,1.64,0.88,2.33,1.58c0.7,0.7,1.23,1.48,1.58,2.33 s0.53,1.78,0.53,2.77l0,10.88c0,0.99-0.18,1.92-0.53,2.77c-0.35,0.85-0.88,1.64-1.58,2.33c-0.7,0.7-1.48,1.22-2.33,1.58 c-0.85,0.35-1.78,0.53-2.77,0.53h-3.61c-0.63,0.8-1.31,1.55-2.04,2.24c-0.87,0.81-1.79,1.54-2.78,2.18 c-0.99,0.66-2.06,1.23-3.19,1.72c-1.12,0.49-2.32,0.89-3.58,1.23c-0.36,0.1-0.75-0.01-1.02-0.31c-0.38-0.42-0.34-1.06,0.08-1.44 c0.59-0.52,1.09-1.05,1.5-1.58c0.39-0.52,0.71-1.05,0.95-1.59v-0.01c0.27-0.59,0.5-1.19,0.71-1.79c0.07-0.21,0.14-0.43,0.21-0.66 h-3.44c-0.98,0-1.9-0.18-2.77-0.53c-0.85-0.35-1.64-0.88-2.33-1.58s-1.23-1.48-1.58-2.33c-0.35-0.87-0.53-1.79-0.53-2.77V7.21 c0-0.98,0.18-1.9,0.53-2.77c0.35-0.85,0.88-1.64,1.58-2.34c0.7-0.7,1.48-1.23,2.33-1.58C97.55,0.18,98.47,0,99.46,0h5.05 L104.52,0.01L104.52,0.01L104.52,0.01z M55.21,8.59h-10.3c-0.67,0-1.29,0.12-1.85,0.35c-0.56,0.23-1.07,0.58-1.54,1.05 c-0.47,0.47-0.81,0.98-1.05,1.54s-0.35,1.18-0.35,1.85v10.05c0,0.67,0.12,1.29,0.35,1.85s0.58,1.07,1.05,1.54 c0.48,0.46,1,0.83,1.55,1.05c0.56,0.23,1.16,0.35,1.84,0.35h4.42c0.52,0,0.94,0.43,0.94,0.94c0,0.12-0.03,0.22-0.05,0.32 c-0.17,0.62-0.35,1.24-0.56,1.83c-0.22,0.63-0.45,1.23-0.71,1.81c-0.13,0.3-0.28,0.58-0.45,0.88c0.9-0.4,1.76-0.87,2.55-1.38 c0.83-0.54,1.6-1.15,2.31-1.81c0.72-0.67,1.37-1.41,1.96-2.2c0.18-0.25,0.47-0.38,0.75-0.38l3.8,0c0.67,0,1.28-0.12,1.83-0.35 s1.07-0.58,1.55-1.05c0.46-0.47,0.81-0.98,1.05-1.54c0.23-0.56,0.35-1.18,0.35-1.85V13.4c0-0.67-0.12-1.29-0.35-1.85 s-0.58-1.07-1.05-1.54c-0.47-0.46-0.98-0.81-1.54-1.05c-0.56-0.23-1.18-0.35-1.85-0.35h-4.67V8.59L55.21,8.59L55.21,8.59z M47.37,20.48c-0.29-0.27-0.44-0.64-0.44-1.02c-0.01-0.37,0.13-0.74,0.41-1.03c0.27-0.29,0.64-0.44,1.01-0.44 c0.37-0.01,0.75,0.12,1.04,0.4l1.78,1.7l4.26-5.25c0-0.01,0.04-0.04,0.05-0.04c0.59-0.52,1.5-0.46,2.02,0.13 c0.53,0.59,0.49,1.5-0.09,2.03l-5.25,6.19c0,0-0.03,0.03-0.04,0.04c-0.28,0.24-0.63,0.36-0.98,0.36c-0.36-0.01-0.71-0.14-0.98-0.4 L47.37,20.48L47.37,20.48L47.37,20.48z M49.58,6.7h10.3c0.9,0,1.76,0.17,2.56,0.49c0.79,0.32,1.51,0.81,2.16,1.46 c0.65,0.65,1.14,1.37,1.46,2.16c0.32,0.79,0.49,1.64,0.49,2.56v10.05c0,0.92-0.17,1.77-0.49,2.56s-0.81,1.51-1.46,2.16 c-0.65,0.65-1.37,1.12-2.16,1.46c-0.79,0.32-1.64,0.49-2.56,0.49h-3.33c-0.58,0.74-1.21,1.43-1.89,2.07 c-0.8,0.75-1.65,1.42-2.57,2.02c-0.92,0.61-1.9,1.14-2.95,1.59c-1.03,0.45-2.15,0.83-3.31,1.14c-0.34,0.09-0.7-0.01-0.94-0.28 c-0.35-0.39-0.31-0.98,0.08-1.33c0.54-0.48,1.01-0.97,1.38-1.46c0.36-0.48,0.66-0.97,0.88-1.47v-0.01c0.25-0.54,0.47-1.1,0.66-1.65 c0.06-0.19,0.13-0.4,0.19-0.61H44.9c-0.9,0-1.76-0.17-2.56-0.49c-0.79-0.32-1.51-0.81-2.16-1.46c-0.65-0.65-1.14-1.37-1.46-2.16 c-0.32-0.8-0.49-1.65-0.49-2.56V13.36c0-0.9,0.17-1.76,0.49-2.56c0.32-0.79,0.81-1.51,1.46-2.16C40.83,8,41.55,7.5,42.34,7.18 c0.79-0.32,1.64-0.49,2.56-0.49h4.67L49.58,6.7L49.58,6.7L49.58,6.7z M26.25,73.95c2.46,0,4.44,1.99,4.44,4.44 c0,2.45-1.99,4.44-4.44,4.44c-2.45,0-4.44-1.99-4.44-4.44C21.8,75.94,23.79,73.95,26.25,73.95L26.25,73.95L26.25,73.95z M20.46,42.82l3.03,8.92l1.53-5.29l-0.75-0.82c-0.34-0.49-0.41-0.92-0.22-1.29c0.4-0.8,1.24-0.65,2.02-0.65 c0.82,0,1.83-0.16,2.09,0.87c0.09,0.34-0.02,0.7-0.26,1.07l-0.75,0.82l1.53,5.29l2.75-8.92c1.98,1.78,7.84,2.14,10.03,3.36 c0.69,0.39,1.31,0.88,1.81,1.54c0.76,1,1.23,2.32,1.35,3.98l0.45,2.9l0,0.02h3.63c0.87,0,1.67,0.36,2.25,0.94 c0.58,0.58,0.94,1.37,0.94,2.25v7.26c0,0.87-0.36,1.66-0.94,2.24l-0.01,0.01c-0.58,0.58-1.37,0.94-2.24,0.94h0.47v22.1 c0,0.67-0.27,1.27-0.71,1.7c-0.43,0.43-1.04,0.71-1.7,0.71H5.87c-0.67,0-1.28-0.27-1.71-0.71c-0.04-0.04-0.08-0.08-0.11-0.13 c-0.37-0.43-0.6-0.98-0.6-1.58V68.25H3.18c-0.87,0-1.67-0.36-2.25-0.94c-0.04-0.04-0.07-0.07-0.1-0.11C0.31,66.65,0,65.9,0,65.08 v-7.26c0-0.87,0.36-1.67,0.94-2.25c0.04-0.04,0.07-0.07,0.11-0.11c0.57-0.52,1.32-0.83,2.13-0.83h3.63l0-0.03l0.45-2.91 c0.13-1.67,0.59-2.98,1.35-3.98c0.5-0.66,1.12-1.15,1.81-1.54C12.62,44.96,18.48,44.6,20.46,42.82L20.46,42.82L20.46,42.82z M3.18,57.63c-0.04,0-0.08,0.01-0.11,0.03l-0.03,0.03c-0.03,0.03-0.06,0.08-0.06,0.13v7.26c0,0.06,0.02,0.1,0.06,0.13 c0.03,0.03,0.08,0.06,0.13,0.06c15.17,0,30.34,0,45.51,0c0.05,0,0.1-0.02,0.13-0.05c0.03-0.03,0.05-0.08,0.05-0.13v-7.27 c0-0.05-0.02-0.09-0.06-0.13c-0.03-0.03-0.08-0.06-0.13-0.06C32.7,57.63,19.16,57.63,3.18,57.63L3.18,57.63z M6.44,68.26v21.51 h39.73V68.26H6.44L6.44,68.26L6.44,68.26z M83.83,73.95c2.46,0,4.44,1.99,4.44,4.44c0,2.45-1.99,4.44-4.44,4.44 s-4.44-1.99-4.44-4.44C79.39,75.94,81.38,73.95,83.83,73.95L83.83,73.95L83.83,73.95z M60.77,57.63c-0.04,0-0.08,0.01-0.11,0.03 l-0.02,0.03c-0.03,0.03-0.06,0.08-0.06,0.13v7.26c0,0.06,0.02,0.09,0.06,0.13c0.03,0.03,0.08,0.06,0.13,0.06 c15.17,0,30.34,0,45.51,0c0.05,0,0.1-0.02,0.13-0.05c0.03-0.03,0.05-0.08,0.05-0.13v-7.27c0-0.05-0.02-0.09-0.06-0.13 c-0.03-0.03-0.08-0.06-0.13-0.06C90.28,57.63,76.75,57.63,60.77,57.63L60.77,57.63z M106.29,54.62c0.87,0,1.67,0.36,2.25,0.94 s0.94,1.37,0.94,2.25v7.26c0,0.87-0.36,1.67-0.94,2.24l-0.01,0.01c-0.58,0.58-1.37,0.94-2.24,0.94h0.47v22.1 c0,0.67-0.27,1.27-0.71,1.7c-0.43,0.43-1.04,0.71-1.7,0.71H63.46c-0.67,0-1.28-0.27-1.71-0.71c-0.04-0.04-0.08-0.08-0.11-0.13 c-0.37-0.43-0.6-0.98-0.6-1.58V68.25h-0.27c-0.87,0-1.67-0.36-2.25-0.94c-0.04-0.04-0.07-0.08-0.1-0.11 c-0.52-0.55-0.83-1.3-0.83-2.12v-7.26c0-0.87,0.36-1.67,0.94-2.25c0.04-0.04,0.08-0.07,0.11-0.11c0.57-0.52,1.32-0.83,2.13-0.83 l7.29,0c0.5-2.27,0.43-4.62,1.55-6.75c0.49-0.92,1.11-1.5,2.31-2.27c1.89-1.2,4.45-2.17,6.95-3.15c-1.33,1.46-2.47,3.01-3.37,4.84 l2.61-0.06l5.99,5.28l5.99-5.28l2.61,0.06l0,0c-0.9-1.83-2.04-3.38-3.37-4.84c2.5,0.98,5.06,1.95,6.95,3.15 c1.2,0.77,1.83,1.34,2.31,2.27c1.12,2.12,1.04,4.46,1.54,6.73L106.29,54.62L106.29,54.62z M64.03,68.26v21.51h39.73V68.26H64.03 L64.03,68.26L64.03,68.26z M76.03,39.6l1.59-0.04l1.32-0.03c-1.54-4.81-1.03-9.24,2.69-13c0.63,2.06,2.04,3.77,4.45,5.03 c1.15,0.87,2.26,1.91,3.34,3.11c0.19-0.79-0.54-1.76-1.42-2.76c0.82,0.41,1.57,0.98,2.1,2.08c0.62,1.28,0.61,2.35,0.41,3.74 c-0.09,0.64-0.25,1.24-0.47,1.8h2.2c2.32-5.03,0.85-12.49-3.9-15.66c-1.45-0.97-2.5-0.93-4.21-0.93c-1.96,0-2.95,0.06-4.63,1.19 c-2.47,1.65-3.99,4.52-4.62,8.49C74.75,34.58,74.66,38,76.03,39.6L76.03,39.6L76.03,39.6z M82.08,48.75l1.19-4.18l-0.58-0.65 c-0.26-0.39-0.32-0.73-0.17-1.02c0.32-0.63,0.97-0.51,1.58-0.51c0.64,0,1.43-0.12,1.63,0.69c0.07,0.27-0.02,0.55-0.21,0.85 l-0.58,0.64l1.19,4.18l-2.02,1.61L82.08,48.75L82.08,48.75L82.08,48.75z M19.09,30.06c-0.38,0.02-0.66,0.09-0.85,0.22 c-0.11,0.07-0.19,0.17-0.25,0.28c-0.06,0.12-0.08,0.28-0.08,0.45c0.02,0.52,0.29,1.19,0.81,1.96L18.72,33l0,0l1.69,2.7 c0.68,1.08,1.39,2.18,2.28,2.99c0.85,0.78,1.88,1.3,3.25,1.31c1.48,0,2.56-0.54,3.44-1.37c0.91-0.86,1.63-2.03,2.34-3.2l1.91-3.14 c0.35-0.81,0.49-1.35,0.4-1.68c-0.05-0.19-0.26-0.28-0.61-0.3c-0.07,0-0.15,0-0.23,0c-0.08,0-0.17,0.01-0.27,0.02 c-0.05,0-0.1,0-0.15-0.01c-0.17,0.01-0.35,0-0.52-0.03l0.65-2.89c-3.49-0.04-5.88-0.65-8.7-2.46c-0.93-0.59-1.21-1.27-2.14-1.2 c-0.7,0.13-1.29,0.45-1.76,0.95c-0.45,0.48-0.79,1.14-1.01,1.99l0.37,3.41C19.46,30.09,19.27,30.08,19.09,30.06L19.09,30.06 L19.09,30.06z M34.07,29.45c0.47,0.14,0.77,0.44,0.89,0.92c0.14,0.54-0.01,1.29-0.46,2.31l0,0c-0.01,0.02-0.02,0.04-0.03,0.06 l-1.93,3.18c-0.74,1.23-1.5,2.45-2.51,3.4c-1.04,0.98-2.33,1.63-4.09,1.63c-1.64,0-2.88-0.63-3.89-1.56 c-0.98-0.9-1.73-2.05-2.44-3.19l-1.69-2.69c-0.62-0.92-0.94-1.77-0.96-2.46c-0.01-0.33,0.05-0.62,0.17-0.88 c0.13-0.27,0.32-0.5,0.58-0.68c0.12-0.08,0.26-0.15,0.41-0.21c-0.11-1.46-0.15-3.3-0.08-4.84c0.04-0.36,0.11-0.73,0.21-1.1 c0.43-1.55,1.52-2.79,2.86-3.65c0.47-0.3,0.99-0.55,1.54-0.75c3.25-1.18,7.57-0.54,9.88,1.96c0.94,1.02,1.53,2.37,1.66,4.15 L34.07,29.45L34.07,29.45L34.07,29.45z M110.06,8.27c0-0.01,0.04-0.04,0.05-0.04c0.6-0.44,1.45-0.32,1.91,0.28 c0.46,0.6,0.35,1.45-0.24,1.92l-2.26,2.39h-0.01c0.85,0.76,1.76,1.58,2.86,2.6c0-0.01,0.04,0.04,0.04,0.05 c0.45,0.6,0.33,1.45-0.28,1.91c-0.59,0.46-1.45,0.35-1.91-0.25l-2.43-2.32l-2.26,2.61c-0.41,0.63-1.25,0.81-1.89,0.41 c-0.63-0.4-0.83-1.23-0.44-1.87c0.01-0.01,0.03-0.06,0.04-0.06c1-1.11,1.8-2.01,2.56-2.86l-2.55-2.15 c-0.63-0.41-0.82-1.25-0.41-1.89c0.4-0.63,1.23-0.83,1.87-0.44c0.01,0.01,0.05,0.03,0.05,0.04c1.07,0.96,1.95,1.75,2.77,2.47 C108.27,10.23,109.07,9.35,110.06,8.27L110.06,8.27L110.06,8.27z M110.62,2.06H99.47c-0.73,0-1.4,0.13-2,0.38s-1.16,0.63-1.66,1.13 c-0.5,0.5-0.88,1.06-1.13,1.66c-0.25,0.6-0.38,1.27-0.38,2v10.88c0,0.73,0.13,1.4,0.38,2c0.25,0.6,0.63,1.16,1.13,1.66 c0.52,0.5,1.08,0.9,1.68,1.13c0.6,0.25,1.26,0.38,1.99,0.38h4.78c0.56,0,1.02,0.46,1.02,1.02c0,0.13-0.03,0.24-0.06,0.35 c-0.18,0.67-0.38,1.34-0.6,1.99c-0.24,0.69-0.49,1.33-0.77,1.96c-0.14,0.32-0.31,0.63-0.49,0.95c0.98-0.43,1.9-0.94,2.75-1.5 c0.9-0.59,1.73-1.24,2.5-1.96c0.78-0.73,1.48-1.52,2.13-2.38c0.2-0.27,0.5-0.41,0.81-0.41h4.11c0.73,0,1.38-0.13,1.99-0.38 c0.6-0.25,1.16-0.63,1.68-1.13c0.5-0.5,0.88-1.06,1.13-1.66c0.25-0.6,0.38-1.27,0.38-2V7.26c0-0.73-0.13-1.4-0.38-2 c-0.25-0.6-0.63-1.16-1.13-1.66s-1.06-0.88-1.66-1.13s-1.27-0.38-2-0.38h-5.05V2.06L110.62,2.06L110.62,2.06z"/></g></svg>